<svg width="32" height="32" viewBox="0 0 32 32" fill="none" xmlns="http://www.w3.org/2000/svg"><circle cx="16" cy="16" r="15.5" fill="black" stroke="white"/><path d="M15.6 27.72C11.6 27.72 8.064 25.672 6 22.6C6.048 19.4 12.4 17.64 15.6 17.64C18.8 17.64 25.152 19.4 25.2 22.6C24.1422 24.1751 22.7134 25.4658 21.0393 26.3587C19.3652 27.2515 17.4973 27.719 15.6 27.72ZM15.6 5C16.873 5 18.0939 5.50571 18.9941 6.40589C19.8943 7.30606 20.4 8.52696 20.4 9.8C20.4 11.073 19.8943 12.2939 18.9941 13.1941C18.0939 14.0943 16.873 14.6 15.6 14.6C14.327 14.6 13.1061 14.0943 12.2059 13.1941C11.3057 12.2939 10.8 11.073 10.8 9.8C10.8 8.52696 11.3057 7.30606 12.2059 6.40589C13.1061 5.50571 14.327 5 15.6 5Z" fill="white"/><path d="M18.9941 6.40589C18.0939 5.50571 16.873 5 15.6 5C14.327 5 13.1061 5.50571 12.2059 6.40589C11.3057 7.30606 10.8 8.52696 10.8 9.8C10.8 11.073 11.3057 12.2939 12.2059 13.1941C13.1061 14.0943 14.327 14.6 15.6 14.6C16.873 14.6 18.0939 14.0943 18.9941 13.1941C19.8943 12.2939 20.4 11.073 20.4 9.8C20.4 8.52696 19.8943 7.30606 18.9941 6.40589Z" fill="white"/></svg>